<svg width="43" height="43" viewBox="0 0 43 43" fill="none" xmlns="http://www.w3.org/2000/svg">
<path d="M21.5 21.5H14.3049C14.9546 20.7745 15.35 19.8164 15.35 18.7667C15.35 16.5039 13.5128 14.6667 11.25 14.6667C8.98717 14.6667 7.15 16.5039 7.15 18.7667C7.15 19.8164 7.54537 20.7745 8.19507 21.5H1M21.5 21.5V14.3049C22.2255 14.9546 23.1836 15.35 24.2333 15.35C26.4961 15.35 28.3333 13.5128 28.3333 11.25C28.3333 8.98717 26.4961 7.15 24.2333 7.15C23.1836 7.15 22.2255 7.54537 21.5 8.19507V1M21.5 21.5H28.6951C28.0454 22.2255 27.65 23.1836 27.65 24.2333C27.65 26.4961 29.4872 28.3333 31.75 28.3333C34.0128 28.3333 35.85 26.4961 35.85 24.2333C35.85 23.1836 35.4546 22.2255 34.8049 21.5H42V1H21.5M21.5 21.5V28.695C20.7745 28.0453 19.8164 27.65 18.7667 27.65C16.5039 27.65 14.6667 29.4871 14.6667 31.75C14.6667 34.0128 16.5039 35.85 18.7667 35.85C19.8164 35.85 20.7745 35.4546 21.5 34.8049V42H1V21.5M1 21.5V1H21.5" stroke="#706051" stroke-miterlimit="10" stroke-linecap="round" stroke-linejoin="round"/>
</svg>
