<svg width="44" height="44" viewBox="0 0 44 44" fill="none" xmlns="http://www.w3.org/2000/svg">
<path d="M22 40.4766L1.375 22.4297M22 40.4766L42.625 22.4297M22 40.4766L11.6875 22.4297M22 40.4766L32.3125 22.4297M22 40.4766V22.4297M1.375 22.4297L6.53125 12.1172M1.375 22.4297H42.625M1.375 22.4297L11.6875 22.4297M6.53125 12.1172H37.4688M6.53125 12.1172L11.6875 22.4297M37.4688 12.1172L42.625 22.4297M37.4688 12.1172L32.3125 22.4297M42.625 22.4297L32.3125 22.4297M11.6875 22.4297H32.3125M11.6875 22.4297L16.8438 12.1171L22 22.4297M11.6875 22.4297H22M32.3125 22.4297H22M32.3125 22.4297L27.1562 12.1171L22 22.4297M41.4961 41.4956L42.7114 42.7109M36.6344 36.6342L37.8497 37.8496M41.4961 37.8497L42.7114 36.6344M36.6348 42.7109L37.8501 41.4956M6.15052 6.15029L7.36585 7.36562M1.28906 1.28906L2.50439 2.50439M6.15039 2.50439L7.36572 1.28906M1.28906 7.36572L2.50439 6.15039" stroke="#706051" stroke-miterlimit="10" stroke-linecap="round" stroke-linejoin="round"/>
</svg>
