<svg width="44" height="44" viewBox="0 0 44 44" fill="none" xmlns="http://www.w3.org/2000/svg">
<path d="M25.5505 9.36973L31.6712 3.24903C34.2454 0.674802 38.4191 0.674802 40.9934 3.24903C43.5676 5.82335 43.0403 10.5244 40.4661 13.0987L34.8727 18.6919C32.947 20.6176 30.1263 21.1028 27.7497 20.1475M13.3162 21.4888L22.6384 30.811M9.58735 25.2175L18.9096 34.5397M15.8492 43.1934L0.933594 28.2779L19.8288 9.4044H34.8581V24.2853L15.8492 43.1934ZM27.4149 20.5563C26.3853 21.5861 24.7158 21.5861 23.6861 20.5563C22.6563 19.5266 22.6563 17.8572 23.6861 16.8275C24.7158 15.7978 26.3853 15.7978 27.4149 16.8275C28.4446 17.8572 28.4446 19.5266 27.4149 20.5563Z" stroke="#706051" stroke-miterlimit="10"/>
</svg>
