<svg width="13" height="13" viewBox="0 0 13 13" fill="none" xmlns="http://www.w3.org/2000/svg">
<path d="M2.29412 1.14706C2.29412 1.78056 1.78056 2.29412 1.14706 2.29412C0.513556 2.29412 0 1.78056 0 1.14706C0 0.513556 0.513556 0 1.14706 0C1.78056 0 2.29412 0.513556 2.29412 1.14706Z" fill="white"/>
<path d="M7.64706 1.14706C7.64706 1.78056 7.1335 2.29412 6.5 2.29412C5.8665 2.29412 5.35294 1.78056 5.35294 1.14706C5.35294 0.513556 5.8665 0 6.5 0C7.1335 0 7.64706 0.513556 7.64706 1.14706Z" fill="white"/>
<path d="M13 1.14706C13 1.78056 12.4864 2.29412 11.8529 2.29412C11.2194 2.29412 10.7059 1.78056 10.7059 1.14706C10.7059 0.513556 11.2194 0 11.8529 0C12.4864 0 13 0.513556 13 1.14706Z" fill="white"/>
<path d="M2.29412 6.44118C2.29412 7.07468 1.78056 7.58824 1.14706 7.58824C0.513556 7.58824 0 7.07468 0 6.44118C0 5.80767 0.513556 5.29412 1.14706 5.29412C1.78056 5.29412 2.29412 5.80767 2.29412 6.44118Z" fill="white"/>
<path d="M7.64706 6.44118C7.64706 7.07468 7.1335 7.58824 6.5 7.58824C5.8665 7.58824 5.35294 7.07468 5.35294 6.44118C5.35294 5.80767 5.8665 5.29412 6.5 5.29412C7.1335 5.29412 7.64706 5.80767 7.64706 6.44118Z" fill="white"/>
<path d="M13 6.44118C13 7.07468 12.4864 7.58824 11.8529 7.58824C11.2194 7.58824 10.7059 7.07468 10.7059 6.44118C10.7059 5.80767 11.2194 5.29412 11.8529 5.29412C12.4864 5.29412 13 5.80767 13 6.44118Z" fill="white"/>
<path d="M2.29412 11.7353C2.29412 12.3688 1.78056 12.8824 1.14706 12.8824C0.513556 12.8824 0 12.3688 0 11.7353C0 11.1018 0.513556 10.5882 1.14706 10.5882C1.78056 10.5882 2.29412 11.1018 2.29412 11.7353Z" fill="white"/>
<path d="M7.64706 11.7353C7.64706 12.3688 7.1335 12.8824 6.5 12.8824C5.8665 12.8824 5.35294 12.3688 5.35294 11.7353C5.35294 11.1018 5.8665 10.5882 6.5 10.5882C7.1335 10.5882 7.64706 11.1018 7.64706 11.7353Z" fill="white"/>
<path d="M13 11.7353C13 12.3688 12.4864 12.8824 11.8529 12.8824C11.2194 12.8824 10.7059 12.3688 10.7059 11.7353C10.7059 11.1018 11.2194 10.5882 11.8529 10.5882C12.4864 10.5882 13 11.1018 13 11.7353Z" fill="white"/>
</svg>
