<svg width="14" height="18" viewBox="0 0 14 18">
<path d="M6.75244 0C3.02909 0 0 3.02909 0 6.75532C0.0418569 13.0897 6.22417 17.1111 6.48734 17.2792C6.56817 17.3309 6.66006 17.3567 6.75244 17.3567C6.84481 17.3567 6.9367 17.3309 7.01753 17.2792C7.2807 17.1111 13.463 13.0897 13.5049 6.7522C13.5049 3.02909 10.4758 0 6.75244 0ZM6.75244 9.2155C5.39425 9.2155 4.28913 8.11038 4.28913 6.7522C4.28913 5.39401 5.39425 4.28889 6.75244 4.28889C8.11062 4.28889 9.21574 5.39401 9.21574 6.7522C9.21574 8.11038 8.11062 9.2155 6.75244 9.2155Z"/>
</svg>
