<svg width="196" height="21" viewBox="0 0 196 21">
<path d="M183.331 6.85262H184.051C186.115 6.85262 187.659 7.38053 188.682 8.43635C189.722 9.47618 190.242 10.804 190.242 12.4197C190.242 13.9714 189.706 15.2912 188.634 16.379C187.579 17.4508 186.179 17.9867 184.435 17.9867H180.26V1.0936H183.331V6.85262ZM195.617 17.9867H192.546V1.0936H195.617V17.9867ZM183.331 15.1072H184.315C185.147 15.1072 185.827 14.8513 186.355 14.3394C186.899 13.8274 187.171 13.1875 187.171 12.4197C187.171 11.5878 186.907 10.9319 186.379 10.452C185.851 9.97209 185.163 9.73213 184.315 9.73213H183.331V15.1072Z" />
<path d="M175.937 15.1072H178.241V20.6743H175.169V17.9867H165.187V20.6743H162.115V15.1072H164.083L166.722 1.0936H175.937V15.1072ZM167.226 15.1072H172.865V3.97311H169.122L167.226 15.1072Z" />
<path d="M158.149 17.9867L157.19 15.6831H150.375L149.415 17.9867H146.104L153.782 0.709656L161.461 17.9867H158.149ZM151.527 12.9956H156.038L153.782 7.62049L151.527 12.9956Z" />
<path d="M141.12 15.2992C142.416 15.2992 143.568 14.9152 144.576 14.1474L146.208 16.451C144.768 17.6028 143.064 18.1787 141.096 18.1787C138.537 18.1787 136.377 17.3388 134.618 15.6591C132.874 13.9794 132.002 11.9397 132.002 9.54015C132.002 7.14055 132.874 5.1009 134.618 3.42118C136.377 1.74147 138.537 0.901611 141.096 0.901611C143.064 0.901611 144.768 1.47751 146.208 2.62932L144.576 4.93293C143.488 4.16506 142.336 3.78112 141.12 3.78112C139.473 3.78112 138.049 4.30104 136.849 5.34086C135.665 6.38068 135.073 7.78045 135.073 9.54015C135.073 11.2999 135.665 12.6996 136.849 13.7394C138.049 14.7793 139.473 15.2992 141.12 15.2992Z" />
<path d="M129.56 17.9867L128.6 15.6831H121.785L120.825 17.9867H117.514L125.192 0.709656L132.871 17.9867H129.56ZM122.937 12.9956H127.448L125.192 7.62049L122.937 12.9956Z" />
<path d="M118.383 9.15622C118.383 10.532 118.031 11.7798 117.328 12.8996C116.64 14.0194 115.776 14.8753 114.736 15.4672C113.696 16.0591 112.608 16.387 111.473 16.451V17.9867H108.401V16.451C107.265 16.387 106.177 16.0591 105.138 15.4672C104.098 14.8753 103.226 14.0194 102.522 12.8996C101.834 11.7798 101.49 10.532 101.49 9.15622C101.49 7.07657 102.202 5.37286 103.626 4.04508C105.05 2.70131 106.641 1.97344 108.401 1.86145V0.325714H111.473V1.86145C113.232 1.97344 114.824 2.70131 116.248 4.04508C117.671 5.37286 118.383 7.07657 118.383 9.15622ZM108.401 13.5715V4.74097C107.489 4.80496 106.617 5.22888 105.786 6.01275C104.97 6.79662 104.562 7.84444 104.562 9.15622C104.562 10.484 104.97 11.5398 105.786 12.3237C106.617 13.0916 107.489 13.5075 108.401 13.5715ZM111.473 4.74097V13.5715C112.384 13.5075 113.248 13.0916 114.064 12.3237C114.896 11.5398 115.312 10.484 115.312 9.15622C115.312 7.84444 114.896 6.79662 114.064 6.01275C113.248 5.22888 112.384 4.80496 111.473 4.74097Z" />
<path d="M91.2379 9.58881V15.374L94.6933 9.58881H96.0545V18.8032H94.3791V13.018L90.9237 18.8032H89.5625V9.58881H91.2379Z" />
<path d="M73.4797 1.0936V11.6998L79.8146 1.0936H82.3102V17.9867H79.2387V7.38053L72.9038 17.9867H70.4082V1.0936H73.4797Z" />
<path d="M67.8063 1.0936V17.9867H64.7348V3.97311H61.4714L60.1756 12.8996C59.9037 14.7233 59.3998 16.0591 58.6639 16.9069C57.928 17.7548 56.9522 18.1787 55.7364 18.1787C54.8725 18.1787 54.0327 17.9227 53.2168 17.4108L54.2726 14.7233C55.0405 15.2032 55.6884 15.2752 56.2163 14.9393C56.7442 14.6033 57.0881 13.8914 57.2481 12.8036L58.9758 1.0936H67.8063Z" />
<path d="M52.1489 3.97311H46.3898V9.06025H50.6131V11.9398H46.3898V15.1072H52.1489V17.9867H43.3184V1.0936H52.1489V3.97311Z" />
<path d="M37.6603 1.0936H40.7318V17.9867H37.6603V11.9398H32.6691V17.9867H29.5977V1.0936H32.6691V9.06025H37.6603V1.0936Z" />
<path d="M25.2393 17.9867L24.2795 15.6831H17.4646L16.5048 17.9867H13.1934L20.8721 0.709656L28.5508 17.9867H25.2393ZM18.6164 12.9956H23.1277L20.8721 7.62049L18.6164 12.9956Z" />
<path d="M11.9544 1.0936V17.9867H8.88295V3.97311H3.89179V17.9867H0.820312V1.0936H11.9544Z" />
</svg>