<svg width="19" height="19" viewBox="0 0 19 19">
<path d="M9.5 0C7.62108 0 5.78435 0.557165 4.22209 1.60104C2.65982 2.64491 1.44218 4.12861 0.723149 5.86451C0.00411624 7.6004 -0.184015 9.51054 0.182544 11.3534C0.549104 13.1962 1.45389 14.8889 2.78249 16.2175C4.11109 17.5461 5.80383 18.4509 7.64664 18.8175C9.48946 19.184 11.3996 18.9959 13.1355 18.2769C14.8714 17.5578 16.3551 16.3402 17.399 14.7779C18.4428 13.2156 19 11.3789 19 9.5C18.997 6.98135 17.9952 4.56672 16.2142 2.78577C14.4333 1.00482 12.0186 0.00297132 9.5 0ZM12.7015 12.7015C12.5395 12.8634 12.3199 12.9544 12.0909 12.9544C11.8619 12.9544 11.6423 12.8634 11.4803 12.7015L8.88941 10.1106C8.72744 9.94866 8.63641 9.72903 8.63637 9.5V4.31818C8.63637 4.08913 8.72736 3.86946 8.88932 3.7075C9.05128 3.54553 9.27095 3.45454 9.5 3.45454C9.72905 3.45454 9.94872 3.54553 10.1107 3.7075C10.2726 3.86946 10.3636 4.08913 10.3636 4.31818V9.14245L12.7015 11.4803C12.8634 11.6423 12.9544 11.8619 12.9544 12.0909C12.9544 12.3199 12.8634 12.5395 12.7015 12.7015Z"/>
</svg>
