<svg width="18" height="18" viewBox="0 0 18 18">
<path fill-rule="evenodd" clip-rule="evenodd" d="M8.99775 0H9.00225C13.9646 0 18 4.03763 18 9C18 13.9624 13.9646 18 9.00225 18C7.17188 18 5.47425 17.4555 4.05113 16.5128L0.59175 17.6186L1.71337 14.2751C0.6345 12.7935 0 10.9688 0 9C0 4.0365 4.03538 0 8.99775 0ZM12.4734 13.9792C13.1607 13.8307 14.0225 13.3222 14.2396 12.7091C14.4567 12.0948 14.4567 11.5717 14.3937 11.4603C14.3429 11.372 14.2226 11.314 14.043 11.2276C13.9962 11.2051 13.9455 11.1806 13.8909 11.1532C13.6265 11.0216 12.3406 10.386 12.0976 10.3016C11.8591 10.2116 11.6319 10.2431 11.4519 10.4973C11.4176 10.5453 11.3835 10.5933 11.3495 10.6411C11.1323 10.9465 10.9229 11.2411 10.7487 11.4288C10.5901 11.5976 10.3314 11.619 10.1142 11.529C10.0906 11.5191 10.0634 11.5081 10.033 11.4959C9.68926 11.357 8.92674 11.049 8.00373 10.2273C7.22523 9.53433 6.69648 8.67146 6.54348 8.41271C6.39327 8.15314 6.52284 8.00093 6.64259 7.86026C6.64481 7.85766 6.64703 7.85506 6.64923 7.85246C6.72644 7.75693 6.80137 7.67738 6.87667 7.59744C6.93084 7.53993 6.98519 7.48222 7.04073 7.41821C7.04898 7.4087 7.057 7.39948 7.06482 7.39049C7.18275 7.2549 7.25298 7.17415 7.33211 7.00533C7.42211 6.83096 7.35798 6.65096 7.29386 6.51821C7.24974 6.42524 6.97718 5.76394 6.74321 5.19627C6.6431 4.95336 6.55005 4.7276 6.48498 4.57083C6.31061 4.15346 6.17786 4.13771 5.91348 4.12646C5.90538 4.12605 5.8972 4.12564 5.88893 4.12522C5.80536 4.12099 5.71333 4.11633 5.61198 4.11633C5.26773 4.11633 4.90886 4.21758 4.69173 4.43921C4.68415 4.44696 4.67624 4.455 4.66803 4.46335C4.39026 4.74585 3.77148 5.37515 3.77148 6.62958C3.77148 7.88644 4.66327 9.10281 4.82828 9.32788C4.83283 9.33408 4.83682 9.33953 4.84023 9.34421C4.85016 9.35725 4.86888 9.38435 4.89611 9.42379C5.23302 9.9117 6.87404 12.2882 9.32111 13.302C11.3889 14.1592 12.0031 14.0793 12.4734 13.9792Z"/>
</svg>
